<?xml version="1.0" encoding="utf-8"?>
<!-- Generator: Adobe Illustrator 23.0.1, SVG Export Plug-In . SVG Version: 6.00 Build 0)  -->
<svg version="1.1" id="Layer_1" xmlns="http://www.w3.org/2000/svg" xmlns:xlink="http://www.w3.org/1999/xlink" x="0px" y="0px"
	 viewBox="0 0 41.6 42.8" style="enable-background:new 0 0 41.6 42.8;" xml:space="preserve">
<style type="text/css">
	.st0{fill:#FFFFFF;}
</style>
<title>phoneicon</title>
<g>
	<g id="Layer_1-2">
		<path class="st0" d="M36,5.6C32.4,2,27.5,0,22.5,0c-0.8-0.1-1.6,0.4-1.7,1.3C20.6,2.1,21.1,2.9,22,3c0.2,0,0.3,0,0.5,0
			c8.9,0,16.1,7.2,16.1,16.1c0,0,0,0,0,0c-0.1,0.8,0.4,1.6,1.3,1.7c0.8,0.1,1.6-0.4,1.7-1.3c0-0.2,0-0.3,0-0.5
			C41.6,14.1,39.6,9.2,36,5.6"/>
		<path class="st0" d="M29.8,19.1c-0.1,0.8,0.4,1.6,1.3,1.7c0.8,0.1,1.6-0.4,1.7-1.3c0-0.2,0-0.3,0-0.5c0-5.7-4.6-10.3-10.3-10.3
			c-0.8,0.1-1.4,0.9-1.3,1.7c0.1,0.6,0.6,1.1,1.3,1.3C26.5,11.8,29.7,15.1,29.8,19.1"/>
		<path class="st0" d="M26.4,26.9c-1.7,0-3.2,0.9-4,2.4c-0.6,0.6-0.6,1.6,0,2.1s1.6,0.6,2.1,0c0.1-0.1,0.2-0.2,0.3-0.4
			c0.7-1,1-1.1,1.4-1.1c1.3,0.2,6.5,3.9,7,5.1c0.1,0.4,0.1,0.8,0,1.1c-0.4,1.4-1.3,2.6-2.6,3.3c-1.3,0.5-2.7,0.5-3.9-0.1
			c-5.2-2.1-10-5.2-14.1-9.2l0,0c-3.9-4-7-8.8-9.1-14c-0.6-1.2-0.6-2.6-0.1-3.9c0.7-1.3,1.9-2.2,3.3-2.6c0.4-0.1,0.7-0.1,1.1,0
			c1.2,0.5,5,5.7,5.1,7c0,0.4-0.1,0.7-1.1,1.4c-0.7,0.4-0.9,1.4-0.5,2.1c0.4,0.7,1.4,0.9,2.1,0.5c0,0,0.1,0,0.1-0.1
			c1.5-0.8,2.4-2.4,2.4-4.1c-0.1-2.4-4.9-8.8-7.1-9.7c-1-0.4-2.1-0.4-3.1,0c-2.2,0.6-4,2.1-5.1,4.1c-0.9,2-0.8,4.3,0.1,6.3
			c2.2,5.6,5.6,10.7,9.8,15.1l0,0c4.3,4.2,9.4,7.5,15,9.8c1.1,0.5,2.2,0.7,3.4,0.7c1,0,2-0.2,2.9-0.6c2.1-1,3.6-2.9,4.2-5.1
			c0.4-1,0.4-2.1,0-3.1C35.2,31.7,28.8,27,26.4,26.9"/>
	</g>
</g>
</svg>
