<?xml version="1.0" encoding="utf-8"?>
<!-- Generator: Adobe Illustrator 21.0.0, SVG Export Plug-In . SVG Version: 6.00 Build 0)  -->
<svg version="1.1" id="Layer_1" xmlns="http://www.w3.org/2000/svg" xmlns:xlink="http://www.w3.org/1999/xlink" x="0px" y="0px"
	 viewBox="0 0 500 500" style="enable-background:new 0 0 500 500;" xml:space="preserve">
<style type="text/css">
	.st0{fill:#FFFFFF;}
	.st1{fill:none;stroke:#FFFFFF;stroke-width:10;stroke-miterlimit:10;}
</style>
<g>
	<g id="logo-text-the">
		<path id="the-t" class="st0" d="M188.1,147.6c0-4.9,0-9.3,0-13.8c4.8,0,9.5,0,14.3,0c0,4.5,0,8.9,0,13.5c4.3,0,8.4,0,12.6,0
			c0,4,0,7.7,0,11.6c-4,0-8.1,0-12.2,0c0,6.7-0.1,13.3,0.1,19.8c0.1,2.2,1.7,3.9,4.1,4.1c2.6,0.2,5.3,0,8.1,0c0,3.2,0,7,0,11.1
			c-6.4,1.7-12.8,2.2-19-0.3c-5.4-2.1-7.8-6.4-7.8-12c-0.1-7.4,0-14.9,0-22.6c-3.1,0-6.1,0-9.2,0c0-3.9,0-7.5,0-11.4
			C181.8,147.6,184.8,147.6,188.1,147.6z"/>
		<path id="the-h" class="st0" d="M236.8,194.1c-4.9,0-9.5,0-14.3,0c0-24.1,0-48.2,0-72.3c4.8,0,9.4,0,14.3,0c0,10.4,0,20.8,0,31.6
			c5.2-7.2,12-8.1,19.5-6.3c5.3,1.3,8.4,5,9.7,10.1c0.6,2.2,1,4.4,1,6.7c0.1,10,0,19.9,0,30.1c-4.6,0-9.2,0-14.2,0
			c0-0.8,0-1.7,0-2.7c-0.1-8.2,0-16.5-0.3-24.7c-0.2-5.9-4-8.5-9.7-7.3c-3.5,0.7-5.8,3.8-5.9,8.4c-0.2,7.8-0.1,15.6-0.2,23.4
			C236.8,192.1,236.8,193.1,236.8,194.1z"/>
		<path id="the-e" class="st0" d="M323.1,175.4c-12,0-24,0-36.3,0c1.6,4.8,4.4,8.3,9.2,9.3c5.4,1.1,9.1-1.6,12.1-6.2
			c3.4,2.4,6.7,4.8,10.1,7.2c-4.5,7.5-18.4,13.4-31.2,7.5c-11.9-5.5-17.5-18.8-13-30.9c4.6-12.4,18.7-19.1,31.7-15.2
			C318.2,151,325.8,163.3,323.1,175.4z M308.7,165.5c-1.1-5.1-6-8.9-11.1-8.7c-4.8,0.2-9.6,4.4-10.1,8.7
			C294.5,165.5,301.6,165.5,308.7,165.5z"/>
	</g>
	<g id="logo-text-films">
		<path id="films-f" class="st0" d="M159.2,364.9c0-11.7,0-23.1,0-34.8c-3.1,0-6.1,0-9.3,0c0-3.9,0-7.6,0-11.6c2.9,0,6,0,9.3,0
			c0-1.7,0-3.1,0-4.4c0-2.2,0-4.3,0.1-6.5c0.6-9.4,5.8-14.5,15.2-14.9c3.7-0.1,7.4,0,11.2,0c0,3.9,0,7.8,0,12c-2,0-3.9,0-5.9,0
			c-4,0.1-5.8,1.6-6.1,5.5c-0.2,2.6,0,5.3,0,8.2c4,0,7.9,0,12,0c0,3.9,0,7.6,0,11.6c-3.9,0-7.9,0-12.1,0c0,11.8,0,23.3,0,35
			C168.8,364.9,164.1,364.9,159.2,364.9z"/>
		<path id="films-i" class="st0" d="M193.5,318.5c4.8,0,9.5,0,14.2,0c0,15.5,0,30.9,0,46.4c-4.7,0-9.4,0-14.2,0
			C193.5,349.5,193.5,334.1,193.5,318.5z"/>
		<path id="films-i-dot" class="st0" d="M192.1,300.9c0-4.8,3.6-8.4,8.3-8.4s8.4,3.7,8.4,8.4c0,4.5-3.7,8.2-8.2,8.3
			C195.9,309.3,192.1,305.6,192.1,300.9z"/>
		<path id="films-l" class="st0" d="M229.1,364.9c-4.8,0-9.4,0-14.1,0c0-24.1,0-48.1,0-72.2c4.7,0,9.4,0,14.1,0
			C229.1,316.7,229.1,340.7,229.1,364.9z"/>
		<path id="films-m" class="st0" d="M280.2,364.9c-4.7,0-9.3,0-14.2,0c0-7.8,0-15.5,0-23.2c0-2-0.1-4-0.4-6
			c-0.5-3.5-2.2-5.3-4.8-5.7c-4-0.5-7.2,0.8-8.5,4c-0.9,2.2-1.3,4.7-1.3,7.1c-0.2,7.9-0.1,15.8-0.1,23.8c-4.8,0-9.5,0-14.3,0
			c0-15.3,0-30.7,0-46.3c4.5,0,9,0,13.7,0c0,1.9,0,3.7,0,6c3.8-5.3,8.6-7.5,14.5-7.4c5.9,0.2,10.8,2.3,13.7,8.2
			c4.2-7.3,10.5-8.9,17.9-8c6.4,0.8,10.3,4.6,12.1,10.6c0.7,2.3,1.1,4.8,1.1,7.2c0.1,9.8,0.1,19.6,0.1,29.6c-4.7,0-9.4,0-14.4,0
			c0-2.5,0-5,0-7.5c0-6.9,0.1-13.7-0.1-20.5c-0.1-4.1-1.9-6.3-4.8-6.7c-4.5-0.6-8,1.2-9.1,5c-0.6,2-0.8,4.3-0.8,6.4
			c-0.1,7.6-0.1,15.3-0.1,22.9C280.4,364.4,280.4,364.5,280.2,364.9z"/>
		<path id="films-s" class="st0" d="M342.2,332c-3-3-6.4-4.5-10.5-3.5c-1.7,0.4-3.1,1.2-3.2,3.2s1.3,2.7,2.9,3.2c3,0.8,6,1.6,9,2.4
			c1.3,0.4,2.7,0.7,4,1.2c5,2.1,8.2,5.7,8.4,11.4c0.2,5.7-2,10.2-7,13c-6.3,3.5-13.1,3.7-20,2.8c-4.8-0.6-9.3-2.1-12.9-5.9
			c2.9-3.2,5.7-6.3,8.7-9.7c3,3.6,6.7,5.5,11.4,5c0.7-0.1,1.4-0.2,2-0.3c1.6-0.4,3.4-1,3.1-2.8c-0.2-1.2-1.6-2.7-2.8-3.2
			c-2.9-1.1-6-1.7-9-2.5c-1.1-0.3-2.2-0.6-3.2-0.9c-5.1-1.7-8.5-4.9-9.1-10.5c-0.6-5.8,1.3-10.7,6.2-13.9c6.1-4,12.8-4.3,19.8-3
			c4.1,0.8,7.8,2.2,10.6,5.3C347.9,326.2,345.1,329,342.2,332z"/>
	</g>
	<g id="logo-text-company">
		<path id="company-c" class="st0" d="M108.5,205.9c-3.8,3.1-7.5,6.1-11.3,9.3c-3.2-3.3-6.9-5.2-11.6-5.4c-8.7-0.4-15.8,3.9-19,12
			c-3.4,8.5-2.7,16.8,2.8,24.4c7,9.5,21.5,9.5,27.8,0.6c0.1-0.2,0.3-0.4,0.5-0.8c4.2,3.2,8.3,6.2,12.4,9.2
			c-6.5,10.1-21.3,14.4-35.6,10.5c-15.2-4.1-24.8-16.2-25.4-32c-0.7-17.3,7.6-30.4,22.5-35.7C85.6,193.1,101.2,196.3,108.5,205.9z"
			/>
		<path id="company-o" class="st0" d="M113.1,242c0.1-13.6,11.8-24.9,25.9-24.7c14.2,0.2,25.6,11.4,25.5,25.1
			c-0.1,13.5-11.8,24.6-25.8,24.6C124.6,266.9,113,255.7,113.1,242z M150.7,242.5c0-4.8-1.5-8.8-5.1-11.9c-3.5-3-8.1-3.4-12.1-1
			c-8.7,5.1-8.8,19.9-0.1,25.1c3.9,2.4,8.5,2.1,12.1-0.9C149,250.8,150.6,246.9,150.7,242.5z"/>
		<path id="company-m" class="st0" d="M214.3,265.4c-4.9,0-9.5,0-14.3,0c-0.1-0.8-0.1-1.5-0.1-2.3c0-7.2,0-14.4,0-21.6
			c0-1.7-0.1-3.5-0.3-5.2c-0.5-3.7-2.2-5.5-5.1-5.9c-3.7-0.5-7.2,1-8.3,4.3c-0.8,2.2-1.1,4.6-1.2,6.8c-0.1,7.9-0.1,15.7-0.1,23.8
			c-4.8,0-9.5,0-14.3,0c0-15.4,0-30.9,0-46.5c4.5,0,9,0,13.7,0c0,1.9,0,3.6,0,6.1c3.9-5.2,8.7-7.5,14.6-7.3
			c5.8,0.2,10.6,2.3,13.4,7.8c0.3-0.1,0.5-0.2,0.7-0.4c4.9-6.9,13.2-9.4,21.1-6.4c4.7,1.8,7.4,5.4,8.6,10.1c0.6,2.4,1,4.9,1.1,7.4
			c0.1,9.3,0.1,18.6,0.1,27.8c0,0.4,0,0.8-0.1,1.3c-4.8,0-9.4,0-14.3,0c0-0.9-0.1-1.8-0.1-2.6c0-7.6,0-15.3,0-22.9
			c0-1,0-1.9-0.1-2.9c-0.2-3.7-1.8-5.9-4.5-6.5c-3.9-0.8-7.7,0.6-9,3.9c-0.9,2.2-1.2,4.7-1.3,7.1
			C214.2,249.4,214.3,257.3,214.3,265.4z"/>
		<path id="company-p" class="st0" d="M264,260.6c0,9.1,0,17.7,0,26.6c-4.8,0-9.5,0-14.4,0c0-22.7,0-45.4,0-68.3c4.3,0,8.6,0,13.1,0
			c0,1.8,0,3.5,0,5.3c0.4,0.1,0.6,0.2,0.6,0.1c6-6.8,13.5-8.1,21.8-5.4c8.6,2.9,13.3,9.3,14.7,18.1c1.1,7.2,0,14-4,20.2
			C288.7,268.3,273.9,270,264,260.6z M262.9,242.2c0,7.2,4.5,11.8,11.6,11.7c6.9-0.1,11.3-4.6,11.4-11.7c0-7.2-4.5-11.9-11.5-11.9
			C267.3,230.3,262.9,234.9,262.9,242.2z"/>
		<path id="company-a" class="st0" d="M315.4,232.7c-2.7-2.5-5.3-5-7.9-7.5c5.2-4.8,11.3-7,18-7.4c3.2-0.2,6.4,0,9.6,0.5
			c8,1.4,12.9,7,13.7,15.7c0.5,4.9,0.5,9.9,0.6,14.8c0.1,5.5,0,10.9,0,16.5c-4.4,0-8.7,0-13.2,0c0-1.7,0-3.3,0-5.1
			c-0.4,0.1-0.7,0.1-0.8,0.3c-4.5,6.3-15.9,7.7-23.1,4.1c-4.6-2.3-7.2-6-7.6-11.3c-0.4-5.7,1.5-10.2,6.5-13.2
			c5.2-3.2,11.1-3.8,17-4.2c2.6-0.2,5.2,0,7.8,0c0.1-3.7-1.4-6.2-4.7-7.5C324.9,226,319.8,228.5,315.4,232.7z M336,245.3
			c-3,0-5.9-0.2-8.7,0.1c-2.1,0.2-4.2,1-6.1,1.9c-2,0.9-2.9,2.6-2.7,4.9c0.1,2.2,1.6,3.3,3.5,4.1C329.4,259.1,336.5,253.7,336,245.3
			z"/>
		<path id="company-n" class="st0" d="M368.8,265.4c-5,0-9.5,0-14.2,0c0-15.5,0-30.9,0-46.5c4.5,0,8.9,0,13.5,0c0,1.8,0,3.6,0,5.6
			c0.4-0.1,0.7-0.1,0.8-0.2c4.5-6.9,14.3-8.1,21.3-5.2c5.7,2.3,8.2,7.2,8.5,12.9c0.5,8.1,0.5,16.3,0.6,24.4c0.1,2.9,0,5.9,0,9
			c-4.8,0-9.4,0-14.5,0c0-0.9,0-1.8,0-2.7c0-7.7,0-15.4-0.1-23.1c0-1.2-0.2-2.4-0.5-3.6c-0.9-3.8-2.9-5.4-6.5-5.6
			c-3.9-0.2-7,1.5-8,4.9c-0.7,2.6-0.9,5.5-1,8.2C368.7,250.7,368.8,258,368.8,265.4z"/>
		<path id="company-y" class="st0" d="M401.8,286.7c0.6-3.9,1.2-7.7,1.8-11.1c3.1,0.2,6.2,0.6,9.2,0.5c2.7-0.1,4.6-1.8,5.7-4.2
			c0.3-0.5,0.4-1.1,0.7-1.7c1.7-2.8,1.5-5.4,0.1-8.4c-6.1-13.5-11.9-27.1-17.7-40.6c-0.3-0.7-0.5-1.4-0.9-2.3
			c4.9,0,9.6-0.1,14.2,0.1c0.7,0,1.6,1.1,1.9,1.8c3.8,9.5,7.4,19,11.3,29c0.7-1.9,1.2-3.3,1.7-4.8c2.6-7.9,5.3-15.9,7.9-23.9
			c0.5-1.6,1.1-2.4,3-2.3c4.1,0.2,8.1,0.1,12.6,0.1c-2.1,5.5-4.2,10.7-6.2,16c-5.7,14.5-11.4,28.9-17,43.4
			c-2.4,6.1-6.8,9.4-13.3,10.1C411.9,288.8,406.9,288.4,401.8,286.7z"/>
	</g>
	<g>
		<path id="logo-line" class="st0" d="M207.9,404.9c0-4.7,0-9.4,0-14.2c29.2,0,58.2,0,87.4,0c0,4.7,0,9.4,0,14.2
			C266.2,404.9,237.2,404.9,207.9,404.9z"/>
	</g>
	<path id="logo-circle" class="st1" d="M492.5,251.3c0,133.1-108.3,241.2-241.6,241.2c-133,0-241-108.4-240.9-241.8
		C10.1,117.7,118.6,9.9,252.1,10C384.5,10.1,492.5,118.5,492.5,251.3z"/>
</g>
</svg>
