<?xml version="1.0" encoding="utf-8"?>
<!-- Generator: Adobe Illustrator 23.0.1, SVG Export Plug-In . SVG Version: 6.00 Build 0)  -->
<svg version="1.1" id="Layer_1" xmlns="http://www.w3.org/2000/svg" xmlns:xlink="http://www.w3.org/1999/xlink" x="0px" y="0px"
	 viewBox="0 0 512 512" style="enable-background:new 0 0 512 512;" xml:space="preserve">
<style type="text/css">
	.st0{fill:#FFFFFF;}
</style>
<path class="st0" d="M256,0C115,0,0,115.1,0,256c0,141,115.1,256,256,256c141,0,256-115.1,256-256C512,115,396.9,0,256,0z M256,497
	C122,497,13,388.9,13,256S122,15,256,15s243,108.1,243,241S390,497,256,497z"/>
<path class="st0" d="M181,404l222-148L181,108V404z M211,164l-6,86l6,98V164z"/>
</svg>
