<svg xmlns="http://www.w3.org/2000/svg" viewBox="0 0 53.1 36.13"><defs><style>.cls-1{fill:#a7a8a9;}</style></defs><title>mail-icon</title><g id="Layer_2" data-name="Layer 2"><g id="Layer_1-2" data-name="Layer 1"><path class="cls-1" d="M43.75,7,26.55,22.17,9.35,7A1.65,1.65,0,1,0,7.17,9.5L25.46,25.61a1.62,1.62,0,0,0,2.18,0L45.93,9.5A1.65,1.65,0,0,0,43.75,7"/><path class="cls-1" d="M48.14,0H5A5,5,0,0,0,0,5V31.17a5,5,0,0,0,5,4.95H48.14a5,5,0,0,0,5-4.95V5a5,5,0,0,0-5-5M49.8,31.17a1.66,1.66,0,0,1-1.66,1.65H5A1.66,1.66,0,0,1,3.3,31.17V5A1.66,1.66,0,0,1,5,3.3H48.14A1.66,1.66,0,0,1,49.8,5Z"/></g></g></svg>