<svg xmlns="http://www.w3.org/2000/svg" viewBox="0 0 41.6 42.79"><defs><style>.cls-1{fill:#84dade;}</style></defs><title>phoneicon</title><g id="Layer_2" data-name="Layer 2"><g id="Layer_1-2" data-name="Layer 1"><path class="cls-1" d="M36,5.6A19,19,0,0,0,22.46,0a1.52,1.52,0,1,0,0,3A16.12,16.12,0,0,1,38.57,19.14a1.52,1.52,0,1,0,3,0A19,19,0,0,0,36,5.6"/><path class="cls-1" d="M29.76,19.14a1.52,1.52,0,1,0,3,0A10.34,10.34,0,0,0,22.46,8.81a1.52,1.52,0,0,0,0,3,7.31,7.31,0,0,1,7.3,7.29"/><path class="cls-1" d="M26.4,26.87a4.56,4.56,0,0,0-4,2.43A1.51,1.51,0,1,0,24.85,31c.67-1,1-1.13,1.38-1.11,1.31.16,6.48,3.94,7,5.13a1.58,1.58,0,0,1,0,1.11,5.23,5.23,0,0,1-2.59,3.27,4.89,4.89,0,0,1-3.9-.13,42.78,42.78,0,0,1-14.06-9.16h0a43,43,0,0,1-9.14-14,4.89,4.89,0,0,1-.13-3.9,5.23,5.23,0,0,1,3.28-2.6,1.55,1.55,0,0,1,1.1,0c1.19.52,5,5.69,5.13,7,0,.43-.13.73-1.11,1.39a1.52,1.52,0,1,0,1.71,2.51,4.58,4.58,0,0,0,2.43-4.06c-.13-2.42-4.85-8.84-7.1-9.67a4.61,4.61,0,0,0-3.13,0A8.18,8.18,0,0,0,.63,10.91a7.76,7.76,0,0,0,.08,6.31,45.69,45.69,0,0,0,9.8,15.05l0,0a46.1,46.1,0,0,0,15,9.79,9,9,0,0,0,3.39.7,7.05,7.05,0,0,0,2.92-.62,8.17,8.17,0,0,0,4.21-5.07,4.58,4.58,0,0,0,0-3.12c-.83-2.26-7.24-7-9.67-7.11"/></g></g></svg>