<?xml version="1.0" encoding="utf-8"?>
<!-- Generator: Adobe Illustrator 23.0.1, SVG Export Plug-In . SVG Version: 6.00 Build 0)  -->
<svg version="1.1" id="Layer_1" xmlns="http://www.w3.org/2000/svg" xmlns:xlink="http://www.w3.org/1999/xlink" x="0px" y="0px"
	 viewBox="0 0 53.1 36.1" style="enable-background:new 0 0 53.1 36.1;" xml:space="preserve">
<style type="text/css">
	.st0{fill:#FFFFFF;}
</style>
<title>mail-icon</title>
<g>
	<g id="Layer_1-2">
		<path class="st0" d="M43.8,7L26.5,22.2L9.4,7C8.7,6.4,7.6,6.5,7,7.2S6.5,8.9,7.2,9.5l0,0l18.3,16.1c0.6,0.6,1.6,0.6,2.2,0
			L45.9,9.5c0.7-0.6,0.8-1.6,0.2-2.3S44.4,6.4,43.8,7L43.8,7"/>
		<path class="st0" d="M48.1,0H5C2.2,0,0,2.2,0,5v26.2c0,2.7,2.3,5,5,4.9h43.1c2.7,0,5-2.2,5-5V5C53.1,2.2,50.9,0,48.1,0 M49.8,31.2
			c0,0.9-0.7,1.7-1.7,1.6H5c-0.9,0-1.7-0.7-1.7-1.6c0,0,0,0,0,0V5c0-0.9,0.7-1.7,1.6-1.7c0,0,0.1,0,0.1,0h43.1
			c0.9,0,1.7,0.7,1.7,1.7c0,0,0,0,0,0V31.2z"/>
	</g>
</g>
</svg>
